<svg xmlns="http://www.w3.org/2000/svg" viewBox="0 0 1060 660" font-family="'Segoe UI', Arial, sans-serif">
  <defs>
    <marker id="arrow" markerWidth="10" markerHeight="10" refX="8" refY="3" orient="auto" markerUnits="strokeWidth">
      <path d="M0,0 L8,3 L0,6 Z" fill="#334155"/>
    </marker>
    <style>
      .title { font-size: 24px; font-weight: 700; fill: #0f172a; }
      .subtitle { font-size: 13px; fill: #64748b; }
      .box-title { font-size: 15px; font-weight: 700; }
      .box-text { font-size: 12px; fill: #475569; }
      .edge { stroke: #334155; stroke-width: 2; fill: none; marker-end: url(#arrow); }
      .edge-label { font-size: 11px; fill: #334155; font-weight: 600; }
      .badge { font-size: 11px; font-weight: 700; }
    </style>
  </defs>

  <rect width="1060" height="660" fill="#f8fafc"/>
  <text x="40" y="46" class="title">Office Energy Monitor — System Architecture</text>
  <text x="40" y="68" class="subtitle">Simulated devices → one shared backend → web dashboard + Discord bot → users</text>

  <!-- 1. Simulated Device Layer -->
  <rect x="40" y="110" width="200" height="180" rx="12" fill="#ecfdf5" stroke="#10b981" stroke-width="2"/>
  <text x="60" y="140" class="box-title" fill="#047857">Simulated Device Layer</text>
  <text x="60" y="164" class="box-text">18 devices · 3 rooms</text>
  <text x="60" y="182" class="box-text">6 fans (60W) + 12 lights (15W)</text>
  <text x="60" y="206" class="box-text">asyncio simulator loop</text>
  <text x="60" y="224" class="box-text">• toggles state over time</text>
  <text x="60" y="242" class="box-text">• status, watts, room,</text>
  <text x="60" y="260" class="box-text">&#160;&#160;last-changed, actor</text>
  <text x="60" y="280" class="box-text" fill="#047857">(stands in for ESP32)</text>

  <!-- 2. Shared Backend -->
  <rect x="330" y="90" width="290" height="380" rx="14" fill="#eff6ff" stroke="#3b82f6" stroke-width="2.5"/>
  <text x="350" y="120" class="box-title" fill="#1d4ed8">Shared Backend — FastAPI</text>
  <rect x="352" y="132" width="180" height="22" rx="6" fill="#dbeafe"/>
  <text x="362" y="148" class="badge" fill="#1d4ed8">SINGLE SOURCE OF TRUTH</text>

  <rect x="352" y="168" width="246" height="66" rx="10" fill="#ffffff" stroke="#93c5fd"/>
  <text x="366" y="190" class="box-title" font-size="13" fill="#1e3a8a">DeviceStore (in-memory)</text>
  <text x="366" y="210" class="box-text">18 devices + energy accrual (kWh)</text>
  <text x="366" y="226" class="box-text">per-room continuity tracking</text>

  <rect x="352" y="244" width="246" height="52" rx="10" fill="#ffffff" stroke="#93c5fd"/>
  <text x="366" y="264" class="box-title" font-size="13" fill="#1e3a8a">Alert Engine</text>
  <text x="366" y="282" class="box-text">after-hours · room-all-on &gt; 2h</text>

  <rect x="352" y="306" width="120" height="70" rx="10" fill="#ffffff" stroke="#93c5fd"/>
  <text x="366" y="328" class="box-title" font-size="13" fill="#1e3a8a">REST API</text>
  <text x="366" y="346" class="box-text">/api/state</text>
  <text x="366" y="362" class="box-text">/devices /usage</text>

  <rect x="478" y="306" width="120" height="70" rx="10" fill="#ffffff" stroke="#93c5fd"/>
  <text x="492" y="328" class="box-title" font-size="13" fill="#1e3a8a">WebSocket</text>
  <text x="492" y="346" class="box-text">/ws/live</text>
  <text x="492" y="362" class="box-text">push snapshots</text>

  <text x="350" y="410" class="box-text" font-style="italic">One process holds the only copy of device state.</text>
  <text x="350" y="428" class="box-text" font-style="italic">Both interfaces read from here — they can never disagree.</text>

  <!-- 3a. Web Dashboard -->
  <rect x="710" y="110" width="200" height="140" rx="12" fill="#f5f3ff" stroke="#8b5cf6" stroke-width="2"/>
  <text x="730" y="140" class="box-title" fill="#6d28d9">Web Dashboard</text>
  <text x="730" y="162" class="box-text">React (Vite)</text>
  <text x="730" y="180" class="box-text">• live device panel</text>
  <text x="730" y="198" class="box-text">• power meter + per-room</text>
  <text x="730" y="216" class="box-text">• alerts, animated floor plan</text>
  <text x="730" y="238" class="box-text" fill="#6d28d9">updates with no refresh</text>

  <!-- 3b. Discord Bot -->
  <rect x="710" y="300" width="200" height="150" rx="12" fill="#eef2ff" stroke="#6366f1" stroke-width="2"/>
  <text x="730" y="330" class="box-title" fill="#4338ca">Discord Bot</text>
  <text x="730" y="352" class="box-text">discord.py</text>
  <text x="730" y="370" class="box-text">!status !room !usage</text>
  <text x="730" y="388" class="box-text">!alerts !help</text>
  <text x="730" y="410" class="box-text">proactive alert posts</text>
  <text x="730" y="432" class="box-text" fill="#4338ca">friendly, not robotic</text>

  <!-- 4. Gemini -->
  <rect x="710" y="500" width="200" height="90" rx="12" fill="#fff7ed" stroke="#f59e0b" stroke-width="2"/>
  <text x="730" y="528" class="box-title" fill="#b45309">Gemini LLM</text>
  <text x="730" y="550" class="box-text">rephrases facts warmly</text>
  <text x="730" y="568" class="box-text">(numbers unchanged;</text>
  <text x="730" y="584" class="box-text">&#160;fallback if unavailable)</text>

  <!-- 5. Users -->
  <rect x="960" y="180" width="80" height="90" rx="12" fill="#f1f5f9" stroke="#64748b" stroke-width="2"/>
  <text x="980" y="212" class="box-title" font-size="13" fill="#334155">Boss</text>
  <text x="972" y="232" class="box-text">browser</text>
  <rect x="960" y="330" width="80" height="90" rx="12" fill="#f1f5f9" stroke="#64748b" stroke-width="2"/>
  <text x="980" y="362" class="box-title" font-size="13" fill="#334155">Boss</text>
  <text x="972" y="382" class="box-text">Discord</text>

  <!-- Edges -->
  <path class="edge" d="M240,200 L326,220"/>
  <text x="250" y="192" class="edge-label">writes state</text>

  <path class="edge" d="M620,200 L706,180"/>
  <text x="628" y="176" class="edge-label">WS push</text>

  <path class="edge" d="M620,360 L706,370"/>
  <text x="628" y="352" class="edge-label">REST pull</text>

  <path class="edge" d="M810,300 L810,254"/>
  <path class="edge" d="M810,450 L810,496"/>
  <text x="818" y="478" class="edge-label">humanize</text>
  <path class="edge" d="M812,540 L900,540 L900,455" fill="none"/>

  <path class="edge" d="M910,180 L956,200"/>
  <text x="900" y="150" class="edge-label">live view</text>
  <path class="edge" d="M910,375 L956,375"/>
  <text x="905" y="322" class="edge-label">replies + alerts</text>

  <text x="40" y="628" class="subtitle">Flow: device state change → backend updates the single store → pushed to the dashboard (WebSocket) and served to the bot (REST) → boss sees it in the browser and on Discord.</text>
</svg>
